<?xml version="1.0" encoding="utf-8"?>
<!-- Generator: Adobe Illustrator 18.0.0, SVG Export Plug-In . SVG Version: 6.00 Build 0)  -->
<!DOCTYPE svg PUBLIC "-//W3C//DTD SVG 1.1//EN" "http://www.w3.org/Graphics/SVG/1.1/DTD/svg11.dtd">
<svg version="1.1" id="Layer_1" xmlns="http://www.w3.org/2000/svg" xmlns:xlink="http://www.w3.org/1999/xlink" x="0px" y="0px"
	 viewBox="0 0 50 50" enable-background="new 0 0 50 50" xml:space="preserve">
<path fill="#1A1A1A" d="M41.7,19.3h-1c0,0,0-0.1-0.1-0.1L29.3,8c0.6-0.8,0.9-1.8,0.9-2.9C30.2,2.3,27.8,0,25,0
	c-2.9,0-5.2,2.3-5.2,5.1c0,1.1,0.3,2.1,0.9,2.9L9.4,19.2c0,0,0,0.1-0.1,0.1h-1c-3.5,0-6.3,2.8-6.3,6.3v18.1C2,47.2,4.8,50,8.3,50
	h33.3c3.5,0,6.3-2.8,6.3-6.3V25.6C48,22.1,45.2,19.3,41.7,19.3z M25,2.4c1.5,0,2.8,1.2,2.8,2.8c0,1.5-1.3,2.8-2.8,2.8
	c-1.5,0-2.8-1.2-2.8-2.8C22.2,3.6,23.4,2.4,25,2.4z M22.1,9.4c0.8,0.6,1.8,0.9,2.9,0.9c1.1,0,2.1-0.3,3-0.9l10,9.9H12.1L22.1,9.4z
	 M25.9,32v-4.7c0-0.5,0.4-0.9,0.9-0.9c0.3,0,0.5,0.1,0.6,0.3l1.7,1.7l1.7-1.7c0.2-0.2,0.4-0.3,0.6-0.3c0.2,0,0.5,0.1,0.6,0.3
	l1.7,1.7l1.7-1.7c0.2-0.2,0.4-0.3,0.6-0.3c0.5,0,0.9,0.4,0.9,0.9V32c0,2.7-1.9,4.9-4.5,5.4v3.4c1.4-2,3.7-3.3,6.3-3.3
	c0.3,0.8,0.4,1.7,0.4,2.7c0,4.2-3.4,7.6-7.6,7.6h-0.4c-4.2,0-7.6-3.4-7.6-7.6c0-0.9,0.1-1.8,0.4-2.7c2.6,0,4.9,1.3,6.3,3.3v-3.4
	C27.8,36.9,25.9,34.6,25.9,32z M46.1,43.7c0,2.4-2,4.4-4.4,4.4H37c2.6-1.7,4.3-4.6,4.3-7.9c0-1.2-0.2-2.3-0.6-3.3l-0.5-1.2h-1.3
	c-0.3,0-0.6,0-0.9,0c0.6-1.1,1-2.4,1-3.7v-4.7c0-1.5-1.3-2.8-2.8-2.8c-0.7,0-1.5,0.3-2,0.8l-0.3,0.3l-0.4-0.3
	c-0.5-0.5-1.2-0.8-2-0.8c-0.8,0-1.5,0.3-2,0.8l-0.4,0.4l-0.4-0.4c-0.5-0.5-1.2-0.8-2-0.8c-1.6,0-2.8,1.3-2.8,2.8V32
	c0,1.3,0.4,2.6,1,3.7c-0.3,0-0.6,0-0.9,0h-1.3l-0.5,1.2c-0.4,1-0.6,2.1-0.6,3.3c0,3.3,1.7,6.2,4.3,7.9H8.3c-2.4,0-4.4-2-4.4-4.4
	V25.6c0-2.4,2-4.4,4.4-4.4h33.3c2.4,0,4.4,2,4.4,4.4V43.7z"/>
</svg>
