<?xml version="1.0" encoding="utf-8"?>
<!-- Generator: Adobe Illustrator 18.0.0, SVG Export Plug-In . SVG Version: 6.00 Build 0)  -->
<!DOCTYPE svg PUBLIC "-//W3C//DTD SVG 1.1//EN" "http://www.w3.org/Graphics/SVG/1.1/DTD/svg11.dtd">
<svg version="1.1" id="Layer_1" xmlns="http://www.w3.org/2000/svg" xmlns:xlink="http://www.w3.org/1999/xlink" x="0px" y="0px"
	 viewBox="0 0 50 50" enable-background="new 0 0 50 50" xml:space="preserve">
<path fill="#333333" d="M47.6,22.6H30.8v-9.2c0-3.7-2.3-5.4-4.6-5.4c-1,0-2.1,0.3-3.1,0.9L3,20.6c-1.9,1.1-3,2.7-3,4.4
	c0,1.7,1.1,3.4,3,4.5l20.1,11.6c1.1,0.6,2.1,0.9,3.1,0.9c2.3,0,4.6-1.7,4.6-5.4v-9.2h16.8c1.3,0,2.4-1.1,2.4-2.4
	C50,23.7,48.9,22.6,47.6,22.6z M27.3,36.6c0,0.7-0.1,1.9-1.1,1.9c-0.3,0-0.7-0.1-1.4-0.5L4.7,26.4C4,26,3.5,25.4,3.5,25
	c0-0.4,0.5-1,1.2-1.4L24.9,12c0.6-0.4,1.1-0.5,1.4-0.5c0.9,0,1.1,1.2,1.1,1.9V36.6z"/>
</svg>
