<?xml version="1.0" encoding="utf-8"?>
<!-- Generator: Adobe Illustrator 18.0.0, SVG Export Plug-In . SVG Version: 6.00 Build 0)  -->
<!DOCTYPE svg PUBLIC "-//W3C//DTD SVG 1.1//EN" "http://www.w3.org/Graphics/SVG/1.1/DTD/svg11.dtd">
<svg version="1.1" id="Layer_1" xmlns="http://www.w3.org/2000/svg" xmlns:xlink="http://www.w3.org/1999/xlink" x="0px" y="0px"
	 viewBox="0 0 50 50" enable-background="new 0 0 50 50" xml:space="preserve">
<g>
	<g>
		<path fill="#1A1A1A" d="M20.8,50c-0.4,0-0.8,0-1.2-0.1c-1.1-0.2-2.1-0.8-2.8-1.6c-0.8-0.9-1.1-2-0.9-3c0.1-0.6,0-1,0-1.3
			c-0.2,0-0.5-0.1-0.9-0.1c-0.7,0-1.1,0.2-1.2,0.2c-0.6,0.7-1.5,1.1-2.5,1.1c-1.2,0-2.4-0.5-3.3-1.4C6,42.1,5.6,39.6,7,38
			c0.2-0.3,0.2-1.5-0.1-2.1c-0.2-0.1-0.8-0.1-1.3,0.1c-0.3,0.1-0.6,0.1-1,0.1c-1.7,0-3.3-1.4-4-3.4c-0.3-1.1-0.4-2.2,0-3.2
			c0.4-1.1,1.2-2,2.2-2.3c0.6-0.2,0.9-0.5,1.1-0.7c-0.2-0.6-0.8-1.6-1.2-1.8c-2-0.4-3.2-2.7-2.7-5.2c0.5-2.2,2.1-3.8,3.9-3.8
			c0.2,0,0.4,0,0.7,0.1c0.5,0.1,1.1,0,1.3,0c0.2-0.6,0.1-1.8-0.1-2.1c-0.6-0.6-1-1.4-1.1-2.3C4.7,10.2,5.2,9,6.1,7.9
			c1-1.1,2.3-1.7,3.6-1.7c0.9,0,1.6,0.3,2.2,0.8c0.4,0.4,0.9,0.6,1.1,0.6c0.4-0.4,1-1.5,0.9-1.9c-0.3-1-0.1-2.1,0.6-3.1
			c0.6-0.8,1.5-1.5,2.6-1.8c0.6-0.2,1.1-0.3,1.7-0.3c1.8,0,3.3,0.9,3.8,2.4c0.2,0.6,0.5,0.9,0.7,1.1C24,3.8,25,3.1,25.1,2.8
			c0.3-1.6,2-2.8,4.1-2.8c0.4,0,0.8,0,1.2,0.1c2.5,0.5,4.1,2.6,3.7,4.6c-0.1,0.6,0,1,0,1.3c0.2,0,0.5,0.1,0.9,0.1
			c0.7,0,1.1-0.2,1.2-0.2c0.6-0.7,1.5-1.1,2.5-1.1c1.2,0,2.4,0.5,3.4,1.4C44,7.9,44.4,10.4,43,12c-0.4,0.4-0.6,0.9-0.6,1.1
			c0.4,0.3,1.3,0.9,1.9,0.9c0.4-0.1,0.7-0.2,1-0.2c1.7,0,3.3,1.4,4,3.4c0.8,2.4-0.2,4.9-2.1,5.5c-0.6,0.2-0.9,0.5-1.1,0.7
			c0.2,0.6,0.8,1.6,1.2,1.8c2,0.4,3.2,2.7,2.7,5.2c-0.5,2.2-2.1,3.8-3.9,3.8c-0.2,0-0.4,0-0.6-0.1c-0.5-0.1-1.1,0-1.3,0
			c-0.2,0.6-0.1,1.8,0.2,2.1c0.6,0.6,1,1.4,1.1,2.3c0.1,1.2-0.4,2.5-1.4,3.5c-1,1.1-2.3,1.7-3.6,1.7c-0.9,0-1.6-0.3-2.2-0.8
			c-0.4-0.4-0.9-0.6-1.1-0.6c-0.4,0.4-1,1.5-0.9,1.9c0.3,1,0.1,2.1-0.6,3.1c-0.6,0.8-1.5,1.5-2.6,1.8c-0.6,0.2-1.1,0.3-1.7,0.3
			c-1.8,0-3.3-0.9-3.8-2.4c-0.2-0.6-0.5-0.9-0.7-1.1c-0.6,0.2-1.6,0.8-1.8,1.2C24.5,48.9,22.9,50,20.8,50z M15,41.1
			c0.9,0,1.7,0.1,2.2,0.4c1.5,0.7,1.9,2.7,1.5,4.4c0,0.1,0.1,0.4,0.2,0.6c0.3,0.3,0.8,0.6,1.3,0.7c0.2,0,0.4,0.1,0.6,0.1
			c0.8,0,1.3-0.3,1.3-0.6c0.5-2.1,3.3-3.3,4.3-3.4c0.1,0,0.2,0,0.2,0c1.6,0,2.8,1.6,3.3,3c0.1,0.2,0.5,0.5,1.1,0.5
			c0.3,0,0.6,0,0.8-0.1c0.5-0.2,1-0.5,1.2-0.8c0.2-0.2,0.2-0.4,0.2-0.6c-0.7-2,1.2-4.5,2.1-5.1c1.2-0.8,3.1-0.4,4.5,0.9
			C40,41,40.2,41,40.3,41c0.4,0,1-0.2,1.5-0.8c0.5-0.6,0.7-1.2,0.7-1.5c0-0.1,0-0.3-0.1-0.4c-1.6-1.5-1.2-4.5-0.8-5.5
			c0.5-1,1.7-1.6,3.2-1.6c0.4,0,0.8,0,1.2,0.1c0,0,0,0,0,0c0.4,0,1-0.5,1.2-1.5c0.2-1.1-0.2-1.8-0.5-1.9c-2.1-0.4-3.3-3.3-3.4-4.3
			c-0.2-1.6,1.4-3,3-3.5c0.3-0.1,0.7-0.9,0.3-1.9c-0.3-1-1.1-1.5-1.4-1.4c-0.3,0.1-0.6,0.1-0.9,0.1c-1.8,0-3.7-1.4-4.2-2.2
			c-0.9-1.3-0.3-3.3,0.9-4.5C41.1,9.8,41,9,40.2,8.2c-0.4-0.4-1-0.6-1.5-0.6c-0.1,0-0.3,0-0.4,0.1c-0.9,1-2.3,1.2-3.3,1.2
			c-0.9,0-1.7-0.1-2.2-0.4c-1.5-0.7-1.9-2.7-1.5-4.4c0.1-0.3-0.5-1-1.5-1.3c-0.2,0-0.4-0.1-0.6-0.1c-0.8,0-1.3,0.3-1.3,0.6
			c-0.5,2.1-3.3,3.3-4.3,3.4c-1.7,0.2-3-1.5-3.5-3c-0.1-0.2-0.5-0.5-1.1-0.5c-0.3,0-0.6,0-0.8,0.1c-0.5,0.2-1,0.5-1.2,0.8
			c-0.2,0.2-0.2,0.4-0.2,0.6c0.7,2-1.2,4.5-2.1,5.1c-1.1,0.8-3.1,0.4-4.5-0.9C10,9,9.8,9,9.7,9c-0.4,0-1,0.2-1.5,0.8
			c-0.5,0.6-0.7,1.2-0.7,1.5c0,0.1,0,0.3,0.1,0.4c1.6,1.5,1.2,4.5,0.8,5.5c-0.4,1-1.7,1.6-3.2,1.6c-0.4,0-0.8,0-1.2-0.1c0,0,0,0,0,0
			c-0.4,0-1,0.5-1.2,1.5c-0.2,1.1,0.2,1.8,0.5,1.9c2.1,0.5,3.3,3.3,3.4,4.3c0.2,1.6-1.4,3-3,3.5c-0.1,0-0.3,0.2-0.4,0.5
			c-0.1,0.4-0.1,1,0,1.5c0.3,1,1.1,1.5,1.4,1.4c0.5-0.2,1.1-0.3,1.7-0.3c1.3,0,2.3,0.5,2.8,1.3c0.5,0.9,1.2,3.9-0.2,5.5
			C8.9,40.2,9,41,9.8,41.8c0.5,0.4,1,0.7,1.5,0.7c0.1,0,0.3,0,0.4-0.1C12.6,41.3,14,41.1,15,41.1z M25,38.7c-6,0-11.2-3.8-13-9.5
			C9.7,22,13.6,14.3,20.8,12c1.4-0.4,2.8-0.7,4.2-0.7c6,0,11.2,3.8,13,9.5c2.3,7.2-1.7,14.9-8.8,17.2C27.8,38.4,26.4,38.7,25,38.7z
			 M25,14.1c-1.1,0-2.2,0.2-3.3,0.5c-5.7,1.8-8.8,8-7,13.7c1.4,4.5,5.6,7.5,10.3,7.5c1.1,0,2.2-0.2,3.3-0.5c5.7-1.8,8.8-8,7-13.7
			C33.9,17.2,29.7,14.1,25,14.1z"/>
	</g>
</g>
</svg>
