<?xml version="1.0" encoding="utf-8"?>
<!-- Generator: Adobe Illustrator 18.0.0, SVG Export Plug-In . SVG Version: 6.00 Build 0)  -->
<!DOCTYPE svg PUBLIC "-//W3C//DTD SVG 1.1//EN" "http://www.w3.org/Graphics/SVG/1.1/DTD/svg11.dtd">
<svg version="1.1" id="Layer_1" xmlns="http://www.w3.org/2000/svg" xmlns:xlink="http://www.w3.org/1999/xlink" x="0px" y="0px"
	 viewBox="0 0 50 50" enable-background="new 0 0 50 50" xml:space="preserve">
<path fill="#1A1A1A" d="M38.5,50H11.5c-2.7,0-5-2.2-5-5V5c0-2.7,2.2-5,5-5h27.1c2.7,0,5,2.2,5,5V45C43.5,47.8,41.3,50,38.5,50z
	 M11.5,1.9c-1.7,0-3,1.4-3,3V45c0,1.7,1.4,3,3,3h27.1c1.7,0,3-1.4,3-3V5c0-1.7-1.4-3-3-3H11.5z M25,45c-1.9,0-3.5-1.6-3.5-3.5
	c0-1.9,1.6-3.5,3.5-3.5c1.9,0,3.5,1.6,3.5,3.5C28.5,43.4,26.9,45,25,45z M25,40c-0.8,0-1.5,0.7-1.5,1.5c0,0.9,0.7,1.5,1.5,1.5
	c0.8,0,1.5-0.7,1.5-1.5C26.5,40.7,25.8,40,25,40z M35.3,36H14.7c-1.7,0-3.2-1.4-3.2-3.2V8.2c0-1.7,1.4-3.2,3.2-3.2h20.6
	c1.7,0,3.2,1.4,3.2,3.2v24.6C38.5,34.6,37.1,36,35.3,36z M14.7,6.9c-0.7,0-1.2,0.5-1.2,1.2v24.6c0,0.7,0.6,1.2,1.2,1.2h20.6
	c0.7,0,1.2-0.5,1.2-1.2V8.2c0-0.7-0.5-1.2-1.2-1.2H14.7z"/>
</svg>
