<?xml version="1.0" encoding="utf-8"?>
<!-- Generator: Adobe Illustrator 18.0.0, SVG Export Plug-In . SVG Version: 6.00 Build 0)  -->
<!DOCTYPE svg PUBLIC "-//W3C//DTD SVG 1.1//EN" "http://www.w3.org/Graphics/SVG/1.1/DTD/svg11.dtd">
<svg version="1.1" id="Layer_1" xmlns="http://www.w3.org/2000/svg" xmlns:xlink="http://www.w3.org/1999/xlink" x="0px" y="0px"
	 viewBox="0 0 50 50" enable-background="new 0 0 50 50" xml:space="preserve">
<g>
	<g>
		<path fill="#333333" d="M44.6,23l-9.5-5.2c-0.5-0.3-1-0.4-1.5-0.4c-1.1,0-2.2,0.7-2.2,2.4v4.3h-7.4c-0.5,0-1,0.4-1,0.9
			c0,0.5,0.4,0.9,1,0.9h7.4v4.3c0,1.7,1.1,2.4,2.2,2.4c0.5,0,1-0.1,1.5-0.4l9.5-5.2c0.9-0.5,1.4-1.2,1.4-2
			C46,24.2,45.5,23.5,44.6,23z M43.8,25.6l-9.5,5.2c-0.3,0.2-0.5,0.2-0.6,0.2c-0.4,0-0.5-0.5-0.5-0.8V19.8c0-0.3,0.1-0.8,0.5-0.8
			c0.1,0,0.3,0,0.6,0.2l9.5,5.2c0.4,0.2,0.6,0.4,0.6,0.6S44.1,25.4,43.8,25.6z"/>
	</g>
	<g>
		<path fill="#333333" d="M33.6,50H8.8C6.2,50,4,47.9,4,45.4V4.6C4,2.1,6.2,0,8.8,0h24.8c2.7,0,4.8,2.1,4.8,4.6v6.9
			c0,0.5-0.4,0.9-0.9,0.9c-0.5,0-0.9-0.4-0.9-0.9V4.6c0-1.6-1.4-2.9-3-2.9H8.8c-1.7,0-3,1.3-3,2.9v40.8c0,1.6,1.4,2.9,3,2.9h24.8
			c1.7,0,3-1.3,3-2.9v-7.1c0-0.5,0.4-0.9,0.9-0.9c0.5,0,0.9,0.4,0.9,0.9v7.1C38.4,47.9,36.2,50,33.6,50z"/>
	</g>
</g>
</svg>
