<?xml version="1.0" encoding="utf-8"?>
<!-- Generator: Adobe Illustrator 18.0.0, SVG Export Plug-In . SVG Version: 6.00 Build 0)  -->
<!DOCTYPE svg PUBLIC "-//W3C//DTD SVG 1.1//EN" "http://www.w3.org/Graphics/SVG/1.1/DTD/svg11.dtd">
<svg version="1.1" id="Layer_1" xmlns="http://www.w3.org/2000/svg" xmlns:xlink="http://www.w3.org/1999/xlink" x="0px" y="0px"
	 viewBox="0 0 50 50" enable-background="new 0 0 50 50" xml:space="preserve">
<g>
	<g>
		<g>
			<path fill="#1A1A1A" d="M6.2,12.5C2.8,12.5,0,9.7,0,6.2C0,2.8,2.8,0,6.2,0s6.2,2.8,6.2,6.2C12.3,9.7,9.6,12.5,6.2,12.5z M6.2,1.9
				c-2.3,0-4.2,1.9-4.2,4.3c0,2.4,1.9,4.3,4.2,4.3c2.3,0,4.2-1.9,4.2-4.3C10.4,3.9,8.5,1.9,6.2,1.9z"/>
		</g>
		<g>
			<path fill="#1A1A1A" d="M49,7.2H16.7c-0.5,0-1-0.4-1-1c0-0.5,0.4-1,1-1H49c0.5,0,1,0.4,1,1C50,6.8,49.6,7.2,49,7.2z"/>
		</g>
	</g>
	<g>
		<g>
			<path fill="#1A1A1A" d="M6.2,31.2C2.8,31.2,0,28.4,0,25c0-3.4,2.8-6.2,6.2-6.2s6.2,2.8,6.2,6.2C12.3,28.4,9.6,31.2,6.2,31.2z
				 M6.2,20.7c-2.3,0-4.2,1.9-4.2,4.3c0,2.4,1.9,4.3,4.2,4.3c2.3,0,4.2-1.9,4.2-4.3C10.4,22.6,8.5,20.7,6.2,20.7z"/>
		</g>
		<g>
			<path fill="#1A1A1A" d="M49,26H16.7c-0.5,0-1-0.4-1-1c0-0.5,0.4-1,1-1H49c0.5,0,1,0.4,1,1C50,25.5,49.6,26,49,26z"/>
		</g>
	</g>
	<g>
		<g>
			<path fill="#1A1A1A" d="M6.2,50C2.8,50,0,47.2,0,43.8c0-3.4,2.8-6.2,6.2-6.2s6.2,2.8,6.2,6.2C12.3,47.2,9.6,50,6.2,50z M6.2,39.4
				c-2.3,0-4.2,1.9-4.2,4.3c0,2.4,1.9,4.3,4.2,4.3c2.3,0,4.2-1.9,4.2-4.3C10.4,41.4,8.5,39.4,6.2,39.4z"/>
		</g>
		<g>
			<path fill="#1A1A1A" d="M49,44.7H16.7c-0.5,0-1-0.4-1-1c0-0.5,0.4-1,1-1H49c0.5,0,1,0.4,1,1C50,44.3,49.6,44.7,49,44.7z"/>
		</g>
	</g>
</g>
</svg>
