<?xml version="1.0" encoding="utf-8"?>
<!-- Generator: Adobe Illustrator 18.0.0, SVG Export Plug-In . SVG Version: 6.00 Build 0)  -->
<!DOCTYPE svg PUBLIC "-//W3C//DTD SVG 1.1//EN" "http://www.w3.org/Graphics/SVG/1.1/DTD/svg11.dtd">
<svg version="1.1" id="Layer_1" xmlns="http://www.w3.org/2000/svg" xmlns:xlink="http://www.w3.org/1999/xlink" x="0px" y="0px"
	 viewBox="0 0 50 50" enable-background="new 0 0 50 50" xml:space="preserve">
<g>
	<g>
		<path fill="#333333" d="M47.1,50H2.9C1.3,50,0,48.7,0,47.1V2.9C0,1.3,1.3,0,2.9,0h38.6C45,0,50,7.8,50,9.7v37.4
			C50,48.7,48.7,50,47.1,50z M2.9,1.9c-0.5,0-1,0.4-1,1v44.2c0,0.5,0.4,1,1,1h44.2c0.5,0,1-0.4,1-1V9.7c0-1.3-4.4-7.8-6.6-7.8H2.9z"
			/>
	</g>
	<g>
		<path fill="#333333" d="M47.1,50H2.9C1.3,50,0,48.7,0,47.1V2.9C0,1.3,1.3,0,2.9,0h36.9v1.9c-0.5,0-1,0.4-1,1v7.7c0,0.5,0.4,1,1,1
			h7.3c0.5,0,1-0.4,1-1H50v36.5C50,48.7,48.7,50,47.1,50z M2.9,1.9c-0.5,0-1,0.4-1,1v44.2c0,0.5,0.4,1,1,1h44.2c0.5,0,1-0.4,1-1
			V13.3c-0.3,0.1-0.6,0.2-1,0.2h-7.3c-1.6,0-2.9-1.3-2.9-2.9V2.9c0-0.3,0.1-0.7,0.2-1H2.9z"/>
	</g>
	<g>
		<path fill="#333333" d="M30.6,11.5H8.3c-0.5,0-1-0.4-1-1c0-0.5,0.4-1,1-1h22.3c0.5,0,1,0.4,1,1C31.6,11.1,31.1,11.5,30.6,11.5z"/>
	</g>
	<g>
		<path fill="#333333" d="M30.6,18.1H8.3c-0.5,0-1-0.4-1-1c0-0.5,0.4-1,1-1h22.3c0.5,0,1,0.4,1,1C31.6,17.7,31.1,18.1,30.6,18.1z"/>
	</g>
	<g>
		<path fill="#333333" d="M41.5,24.4H8.3c-0.5,0-1-0.4-1-1c0-0.5,0.4-1,1-1h33.2c0.5,0,1,0.4,1,1C42.5,23.9,42,24.4,41.5,24.4z"/>
	</g>
	<g>
		<path fill="#333333" d="M41.5,31.6H8.3c-0.5,0-1-0.4-1-1c0-0.5,0.4-1,1-1h33.2c0.5,0,1,0.4,1,1C42.5,31.2,42,31.6,41.5,31.6z"/>
	</g>
	<g>
		<path fill="#333333" d="M41.5,40.4H8.3c-0.5,0-1-0.4-1-1c0-0.5,0.4-1,1-1h33.2c0.5,0,1,0.4,1,1C42.5,40,42,40.4,41.5,40.4z"/>
	</g>
</g>
</svg>
