<?xml version="1.0" encoding="utf-8"?>
<!-- Generator: Adobe Illustrator 18.0.0, SVG Export Plug-In . SVG Version: 6.00 Build 0)  -->
<!DOCTYPE svg PUBLIC "-//W3C//DTD SVG 1.1//EN" "http://www.w3.org/Graphics/SVG/1.1/DTD/svg11.dtd">
<svg version="1.1" id="Layer_1" xmlns="http://www.w3.org/2000/svg" xmlns:xlink="http://www.w3.org/1999/xlink" x="0px" y="0px"
	 viewBox="0 0 50 50" enable-background="new 0 0 50 50" xml:space="preserve">
<g>
	<path fill="#333B46" d="M39.2,50c-6,0-10.8-4.8-10.8-10.6c0-5.8,4.8-10.6,10.8-10.6c1.1,0,2.3,0.2,3.4,0.5V18.1
		c0-0.6-0.5-1.1-1.2-1.1H22.8c-0.7,0-1.2,0.5-1.2,1.1v21.3c0,5.8-4.8,10.6-10.8,10.6C4.8,50,0,45.2,0,39.4c0-5.8,4.8-10.6,10.8-10.6
		c1.1,0,2.3,0.2,3.4,0.5v-26c0-1.8,1.5-3.3,3.4-3.3h29C48.5,0,50,1.5,50,3.3v36.1C50,45.2,45.2,50,39.2,50z M39.2,30.8
		c-4.9,0-8.8,3.9-8.8,8.6c0,4.8,4,8.6,8.8,8.6c4.9,0,8.8-3.9,8.8-8.6V3.3C48,2.6,47.4,2,46.6,2h-29c-0.8,0-1.4,0.6-1.4,1.4v29
		l-1.4-0.7c-1.2-0.6-2.6-0.9-3.9-0.9c-4.9,0-8.8,3.9-8.8,8.6c0,4.8,4,8.6,8.8,8.6c4.9,0,8.8-3.9,8.8-8.6V18.1c0-1.7,1.4-3.1,3.2-3.1
		h18.6c1.7,0,3.2,1.4,3.2,3.1v14.3l-1.4-0.7C41.9,31.1,40.6,30.8,39.2,30.8z"/>
</g>
</svg>
