<?xml version="1.0" encoding="utf-8"?>
<!-- Generator: Adobe Illustrator 18.0.0, SVG Export Plug-In . SVG Version: 6.00 Build 0)  -->
<!DOCTYPE svg PUBLIC "-//W3C//DTD SVG 1.1//EN" "http://www.w3.org/Graphics/SVG/1.1/DTD/svg11.dtd">
<svg version="1.1" id="Layer_1" xmlns="http://www.w3.org/2000/svg" xmlns:xlink="http://www.w3.org/1999/xlink" x="0px" y="0px"
	 viewBox="0 0 50 50" enable-background="new 0 0 50 50" xml:space="preserve">
<g>
	<path fill="#333333" d="M46.3,44.5H3.7c-2,0-3.7-1.7-3.7-3.7V16.3c0-2,1.6-3.7,3.7-3.7h24.4V9.2c0-2,1.6-3.7,3.7-3.7h14.5
		c2,0,3.7,1.7,3.7,3.7v31.6C50,42.8,48.4,44.5,46.3,44.5z M3.7,14.5c-0.9,0-1.7,0.8-1.7,1.7v24.6c0,0.9,0.8,1.7,1.7,1.7h42.6
		c0.9,0,1.7-0.8,1.7-1.7V9.2c0-0.9-0.8-1.7-1.7-1.7H31.8c-0.9,0-1.7,0.8-1.7,1.7v5.4H3.7z"/>
</g>
</svg>
