<?xml version="1.0" encoding="utf-8"?>
<!-- Generator: Adobe Illustrator 18.0.0, SVG Export Plug-In . SVG Version: 6.00 Build 0)  -->
<!DOCTYPE svg PUBLIC "-//W3C//DTD SVG 1.1//EN" "http://www.w3.org/Graphics/SVG/1.1/DTD/svg11.dtd">
<svg version="1.1" id="Layer_1" xmlns="http://www.w3.org/2000/svg" xmlns:xlink="http://www.w3.org/1999/xlink" x="0px" y="0px"
	 viewBox="0 0 50 50" enable-background="new 0 0 50 50" xml:space="preserve">
<g>
	<g>
		<path fill="#333333" d="M17.3,50h17.8c1,0,1.9-0.9,1.9-1.9c0-1.1-0.8-1.9-1.9-1.9H17.3c-7.5,0-13.6-6.2-13.6-13.9
			c0-7.7,6.1-13.9,13.6-13.9c1,0,1.9-0.9,1.9-1.9c0-1.1-0.8-1.9-1.9-1.9C7.8,14.5,0,22.5,0,32.3C0,42,7.8,50,17.3,50z"/>
	</g>
	<g>
		<path fill="#333333" d="M17.1,31.3V5.9C17.1,1.8,19.6,0,22,0c1.1,0,2.2,0.3,3.3,1l21.5,12.7c2,1.2,3.2,3,3.2,4.9
			c0,1.9-1.2,3.7-3.2,4.9L25.3,36.2c-1.1,0.7-2.3,1-3.3,1C19.6,37.2,17.1,35.4,17.1,31.3z M20.9,5.9v25.5c0,0.8,0.1,2,1.1,2
			c0.3,0,0.8-0.1,1.5-0.5L45,20.1c0.8-0.5,1.3-1.1,1.3-1.5s-0.5-1.1-1.3-1.5L23.5,4.3c-0.7-0.4-1.2-0.5-1.5-0.5
			C21,3.8,20.9,5.1,20.9,5.9z"/>
	</g>
</g>
</svg>
