<?xml version="1.0" encoding="utf-8"?>
<!-- Generator: Adobe Illustrator 18.0.0, SVG Export Plug-In . SVG Version: 6.00 Build 0)  -->
<!DOCTYPE svg PUBLIC "-//W3C//DTD SVG 1.1//EN" "http://www.w3.org/Graphics/SVG/1.1/DTD/svg11.dtd">
<svg version="1.1" id="Layer_1" xmlns="http://www.w3.org/2000/svg" xmlns:xlink="http://www.w3.org/1999/xlink" x="0px" y="0px"
	 viewBox="0 0 50 50" enable-background="new 0 0 50 50" xml:space="preserve">
<g>
	<g>
		<path fill="#333333" d="M40.8,50H9.2V32.7c0-3.5,2.7-6.3,6-6.3h19.6c3.3,0,6,2.8,6,6.3V50z M11.6,47.5h26.8V32.7
			c0-2.1-1.6-3.8-3.6-3.8H15.2c-2,0-3.6,1.7-3.6,3.8V47.5z"/>
	</g>
	<g>
		<g>
			<path fill="#333333" d="M40.7,50H9.3C4.2,50,0,45.7,0,40.4V9.6C0,4.3,4.2,0,9.3,0h32L50,9.1v31.4C50,45.7,45.9,50,40.7,50z
				 M9.3,2.5c-3.8,0-6.8,3.2-6.8,7.1v30.8c0,3.9,3.1,7.1,6.8,7.1h31.5c3.8,0,6.8-3.2,6.8-7.1V10.1l-7.3-7.6H9.3z"/>
		</g>
		<g>
			<path fill="#333333" d="M34.2,18.5H17.5c-3.3,0-6-2.8-6-6.3V0h28.8v12.3C40.2,15.7,37.5,18.5,34.2,18.5z M13.9,2.5v9.8
				c0,2.1,1.6,3.8,3.6,3.8h16.7c2,0,3.6-1.7,3.6-3.8V2.5H13.9z"/>
		</g>
		<g>
			<path fill="#333333" d="M24.1,11.2c0,1.9-1.5,3.4-3.3,3.4l0,0c-1.8,0-3.3-1.5-3.3-3.4V7.3c0-1.9,1.5-3.4,3.3-3.4l0,0
				c1.8,0,3.3,1.5,3.3,3.4V11.2z"/>
		</g>
	</g>
	<g>
		<path fill="#333333" d="M35.3,34.9H14.7c-0.7,0-1.2-0.6-1.2-1.3c0-0.7,0.5-1.3,1.2-1.3h20.6c0.7,0,1.2,0.6,1.2,1.3
			C36.5,34.3,36,34.9,35.3,34.9z"/>
	</g>
	<g>
		<path fill="#333333" d="M35.3,39.5H14.7c-0.7,0-1.2-0.6-1.2-1.3c0-0.7,0.5-1.3,1.2-1.3h20.6c0.7,0,1.2,0.6,1.2,1.3
			C36.5,38.9,36,39.5,35.3,39.5z"/>
	</g>
	<g>
		<path fill="#333333" d="M35.3,44.7H14.7c-0.7,0-1.2-0.6-1.2-1.3c0-0.7,0.5-1.3,1.2-1.3h20.6c0.7,0,1.2,0.6,1.2,1.3
			C36.5,44.1,36,44.7,35.3,44.7z"/>
	</g>
</g>
</svg>
