<?xml version="1.0" encoding="utf-8"?>
<!-- Generator: Adobe Illustrator 18.0.0, SVG Export Plug-In . SVG Version: 6.00 Build 0)  -->
<!DOCTYPE svg PUBLIC "-//W3C//DTD SVG 1.1//EN" "http://www.w3.org/Graphics/SVG/1.1/DTD/svg11.dtd">
<svg version="1.1" id="Layer_1" xmlns="http://www.w3.org/2000/svg" xmlns:xlink="http://www.w3.org/1999/xlink" x="0px" y="0px"
	 viewBox="0 0 50 50" enable-background="new 0 0 50 50" xml:space="preserve">
<g>
	<path fill="#333333" d="M44,6.1C40.2,2.2,35.1,0,29.6,0C24.2,0,19,2.2,15.2,6.1c-6.4,6.5-7.6,16.3-3.8,24.1l-9.7,9.9
		c-2.2,2.3-2.2,5.9,0,8.2c1.1,1.1,2.5,1.7,4,1.7c1.5,0,2.9-0.6,4-1.7l9.4-9.6c3.1,1.9,6.8,3,10.5,3c5.4,0,10.6-2.2,14.4-6.1
		C52,27.5,52,14.2,44,6.1z M8.3,46.9C7.6,47.6,6.7,48,5.7,48S3.7,47.6,3,46.9c-1.5-1.5-1.5-3.9,0-5.4l9.3-9.5
		c0.8,1.3,1.7,2.5,2.8,3.6c0.7,0.7,1.5,1.4,2.3,2L8.3,46.9z M42.7,34.2c-3.5,3.6-8.1,5.5-13.1,5.5c-4.9,0-9.6-2-13.1-5.5
		c-7.2-7.4-7.2-19.3,0-26.7C20,3.9,24.7,2,29.6,2c4.9,0,9.6,2,13.1,5.5C49.9,14.9,49.9,26.8,42.7,34.2z"/>
	<path fill="#333333" d="M10.8,37.1l-5,5.1c-0.4,0.4-0.4,1,0,1.4c0.2,0.2,0.4,0.3,0.7,0.3c0.2,0,0.5-0.1,0.7-0.3l5-5.1
		c0.4-0.4,0.4-1,0-1.4C11.8,36.7,11.2,36.7,10.8,37.1z"/>
	<path fill="#333333" d="M40.4,27.2c-0.4-0.3-1-0.2-1.3,0.2c-2.2,3-5.3,4.9-8.6,5.4c-2.4,0.3-4.6-0.2-6.4-1.6
		c-0.4-0.3-1-0.2-1.3,0.2c-0.3,0.4-0.2,1,0.2,1.4c1.8,1.4,3.9,2.1,6.2,2.1c0.5,0,1,0,1.6-0.1c3.7-0.5,7.3-2.8,9.8-6.1
		C40.9,28.2,40.9,27.6,40.4,27.2z"/>
</g>
</svg>
