<?xml version="1.0" encoding="utf-8"?>
<!-- Generator: Adobe Illustrator 18.0.0, SVG Export Plug-In . SVG Version: 6.00 Build 0)  -->
<!DOCTYPE svg PUBLIC "-//W3C//DTD SVG 1.1//EN" "http://www.w3.org/Graphics/SVG/1.1/DTD/svg11.dtd">
<svg version="1.1" id="Layer_1" xmlns="http://www.w3.org/2000/svg" xmlns:xlink="http://www.w3.org/1999/xlink" x="0px" y="0px"
	 viewBox="0 0 50 50" enable-background="new 0 0 50 50" xml:space="preserve">
<g>
	<path fill="#333333" d="M45,50H5c-2.7,0-5-2.2-5-5V17c0-2.7,2.2-5,5-5h6.2L8,8.8C7.4,8.2,7,7.3,7,6.4C7,5.5,7.4,4.7,8,4
		c0.6-0.6,1.5-1,2.4-1c0.9,0,1.8,0.4,2.4,1l7.6,7.6L31.1,1c0.6-0.6,1.5-1,2.4-1c0.9,0,1.8,0.4,2.4,1c0.6,0.6,1,1.5,1,2.4
		c0,0.9-0.4,1.8-1,2.4L29.8,12H45c2.7,0,5,2.2,5,5v28C50,47.8,47.8,50,45,50z M5,13.9c-1.7,0-3,1.4-3,3v28c0,1.7,1.4,3,3,3H45
		c1.7,0,3-1.4,3-3V17c0-1.7-1.4-3-3-3H25.2l9.5-9.5c0.3-0.3,0.4-0.7,0.4-1.1c0-0.4-0.2-0.8-0.4-1.1c-0.6-0.6-1.5-0.6-2.1,0
		L20.9,13.9h-0.8l-8.6-8.6c-0.6-0.6-1.5-0.6-2.1,0C9.1,5.7,8.9,6,8.9,6.4c0,0.4,0.2,0.8,0.4,1.1l6.4,6.5H5z M32.8,45H8.2
		C6.4,45,5,43.6,5,41.8V20.2C5,18.4,6.4,17,8.2,17h24.6c1.7,0,3.2,1.4,3.2,3.2v21.6C36,43.6,34.6,45,32.8,45z M8.2,19
		c-0.7,0-1.2,0.5-1.2,1.2v21.6c0,0.7,0.5,1.2,1.2,1.2h24.6c0.7,0,1.2-0.5,1.2-1.2V20.2c0-0.7-0.5-1.2-1.2-1.2H8.2z M41.5,32
		c-1.9,0-3.5-1.6-3.5-3.5c0-1.9,1.6-3.5,3.5-3.5c1.9,0,3.5,1.6,3.5,3.5C45,30.4,43.4,32,41.5,32z M41.5,27c-0.9,0-1.5,0.7-1.5,1.5
		c0,0.9,0.7,1.5,1.5,1.5c0.9,0,1.5-0.7,1.5-1.5C43.1,27.7,42.4,27,41.5,27z M41.5,24c-1.9,0-3.5-1.6-3.5-3.5c0-1.9,1.6-3.5,3.5-3.5
		c1.9,0,3.5,1.6,3.5,3.5C45,22.4,43.4,24,41.5,24z M41.5,19c-0.9,0-1.5,0.7-1.5,1.5s0.7,1.5,1.5,1.5c0.9,0,1.5-0.7,1.5-1.5
		S42.4,19,41.5,19z"/>
</g>
</svg>
