<?xml version="1.0" encoding="utf-8"?>
<!-- Generator: Adobe Illustrator 18.0.0, SVG Export Plug-In . SVG Version: 6.00 Build 0)  -->
<!DOCTYPE svg PUBLIC "-//W3C//DTD SVG 1.1//EN" "http://www.w3.org/Graphics/SVG/1.1/DTD/svg11.dtd">
<svg version="1.1" id="Layer_1" xmlns="http://www.w3.org/2000/svg" xmlns:xlink="http://www.w3.org/1999/xlink" x="0px" y="0px"
	 viewBox="0 0 50 50" enable-background="new 0 0 50 50" xml:space="preserve">
<g>
	<g>
		<path fill="#333333" d="M32.7,50H14.9c-1,0-1.9-0.9-1.9-1.9c0-1.1,0.8-1.9,1.9-1.9h17.8c7.5,0,13.6-6.2,13.6-13.9
			c0-7.7-6.1-13.9-13.6-13.9c-1,0-1.9-0.9-1.9-1.9c0-1.1,0.8-1.9,1.9-1.9c9.5,0,17.3,8,17.3,17.7C50,42,42.2,50,32.7,50z"/>
	</g>
	<g>
		<path fill="#333333" d="M28,37.2c-1.1,0-2.2-0.3-3.3-1L3.2,23.5c-2-1.2-3.2-3-3.2-4.9c0-1.9,1.2-3.7,3.2-4.9L24.7,1
			c1.1-0.7,2.3-1,3.3-1c2.4,0,4.9,1.8,4.9,5.9v25.5C32.9,35.4,30.4,37.2,28,37.2z M28,3.8c-0.3,0-0.8,0.1-1.5,0.5L5,17.1
			c-0.8,0.5-1.3,1.1-1.3,1.5s0.5,1.1,1.3,1.5l21.5,12.7c0.7,0.4,1.2,0.5,1.5,0.5c1,0,1.1-1.3,1.1-2V5.9C29.1,5.1,29,3.8,28,3.8z"/>
	</g>
</g>
</svg>
